General Info..........


Complete name                    : Arabic 8 Arabian - Iranian Porn Reality Sex Arab Beauty=MTR=.mpg
Format                           : MPEG-PS
File size                        : 188 MiB
Duration                         : 18mn 52s
Overall bit rate                 : 1 395 Kbps

Video
ID                               : 224 (0xE0)
Format                           : MPEG Video
Format version                   : Version 1
Format settings, BVOP            : Yes
Format settings, Matrix          : Default
Duration                         : 18mn 52s
Bit rate mode                    : Constant
Bit rate                         : 1 150 Kbps
Width                            : 352 pixels
Height                           : 288 pixels
Display aspect ratio             : 4:3
Frame rate                       : 25.000 fps
Standard                         : PAL
Color space                      : YUV
Bit depth                        : 8 bits
Scan type                        : Progressive
Compression mode                 : Lossy
Bits/(Pixel*Frame)               : 0.454
Stream size                      : 154 MiB (82%)

Audio
ID                               : 192 (0xC0)
Format                           : MPEG Audio
Format version                   : Version 1
Format profile                   : Layer 2
Duration                         : 18mn 52s
Bit rate mode                    : Constant
Bit rate                         : 224 Kbps
Channel(s)                       : 2 channels
Sampling rate                    : 44.1 KHz
Compression mode                 : Lossy
Stream size                      : 30.2 MiB (16%)

